<mxfile host="app.diagrams.net" modified="2023-09-25T14:40:12.945Z" agent="Mozilla/5.0 (Macintosh; Intel Mac OS X 10_15_7) AppleWebKit/537.36 (KHTML, like Gecko) Chrome/117.0.0.0 Safari/537.36" etag="kv8tS4u3FyihbfHj2K8-" version="21.8.2" type="device">
  <diagram name="Page-1" id="oRcpVdzLqUrCE2OPrK0_">
    <mxGraphModel dx="2588" dy="1764" grid="1" gridSize="10" guides="1" tooltips="1" connect="1" arrows="1" fold="1" page="1" pageScale="1" pageWidth="291" pageHeight="413" math="0" shadow="0">
      <root>
        <mxCell id="0" />
        <mxCell id="1" parent="0" />
        <mxCell id="mBs1r-Zp-DPNsg0r-bgw-35" value="" style="swimlane;startSize=0;movable=1;resizable=1;rotatable=1;deletable=1;editable=1;locked=0;connectable=1;" parent="1" vertex="1">
          <mxGeometry x="240" y="210" width="1240" height="680" as="geometry">
            <mxRectangle x="80" y="40" width="50" height="40" as="alternateBounds" />
          </mxGeometry>
        </mxCell>
        <mxCell id="mBs1r-Zp-DPNsg0r-bgw-37" value="&lt;span style=&quot;white-space: pre;&quot;&gt;&#x9;&lt;/span&gt;&lt;span style=&quot;white-space: pre;&quot;&gt;&#x9;&lt;/span&gt;Presentation Layer" style="rounded=0;whiteSpace=wrap;html=1;align=left;movable=1;resizable=1;rotatable=1;deletable=1;editable=1;locked=0;connectable=1;" parent="mBs1r-Zp-DPNsg0r-bgw-35" vertex="1">
          <mxGeometry x="40" y="40" width="760" height="120" as="geometry" />
        </mxCell>
        <mxCell id="mBs1r-Zp-DPNsg0r-bgw-38" value="Router&lt;br&gt;Component" style="rounded=1;whiteSpace=wrap;html=1;movable=1;resizable=1;rotatable=1;deletable=1;editable=1;locked=0;connectable=1;" parent="mBs1r-Zp-DPNsg0r-bgw-35" vertex="1">
          <mxGeometry x="430" y="70" width="120" height="60" as="geometry" />
        </mxCell>
        <mxCell id="mBs1r-Zp-DPNsg0r-bgw-39" value="&lt;span style=&quot;white-space: pre;&quot;&gt;&#x9;&lt;/span&gt;&lt;span style=&quot;white-space: pre;&quot;&gt;&#x9;&lt;/span&gt;Business&amp;nbsp;Layer" style="rounded=0;whiteSpace=wrap;html=1;align=left;movable=1;resizable=1;rotatable=1;deletable=1;editable=1;locked=0;connectable=1;" parent="mBs1r-Zp-DPNsg0r-bgw-35" vertex="1">
          <mxGeometry x="40" y="200" width="760" height="120" as="geometry" />
        </mxCell>
        <mxCell id="mBs1r-Zp-DPNsg0r-bgw-40" value="Register&lt;br&gt;Handler" style="rounded=1;whiteSpace=wrap;html=1;movable=1;resizable=1;rotatable=1;deletable=1;editable=1;locked=0;connectable=1;" parent="mBs1r-Zp-DPNsg0r-bgw-35" vertex="1">
          <mxGeometry x="220" y="230" width="120" height="60" as="geometry" />
        </mxCell>
        <mxCell id="mBs1r-Zp-DPNsg0r-bgw-41" value="&lt;span style=&quot;white-space: pre;&quot;&gt;&#x9;&lt;/span&gt;&lt;span style=&quot;white-space: pre;&quot;&gt;&#x9;&lt;/span&gt;Persistance&amp;nbsp;Layer" style="rounded=0;whiteSpace=wrap;html=1;align=left;movable=1;resizable=1;rotatable=1;deletable=1;editable=1;locked=0;connectable=1;" parent="mBs1r-Zp-DPNsg0r-bgw-35" vertex="1">
          <mxGeometry x="40" y="360" width="760" height="120" as="geometry" />
        </mxCell>
        <mxCell id="mBs1r-Zp-DPNsg0r-bgw-63" style="edgeStyle=orthogonalEdgeStyle;rounded=0;orthogonalLoop=1;jettySize=auto;html=1;exitX=0.75;exitY=0;exitDx=0;exitDy=0;entryX=0.75;entryY=1;entryDx=0;entryDy=0;movable=1;resizable=1;rotatable=1;deletable=1;editable=1;locked=0;connectable=1;" parent="mBs1r-Zp-DPNsg0r-bgw-35" source="mBs1r-Zp-DPNsg0r-bgw-42" target="mBs1r-Zp-DPNsg0r-bgw-40" edge="1">
          <mxGeometry relative="1" as="geometry" />
        </mxCell>
        <mxCell id="mBs1r-Zp-DPNsg0r-bgw-42" value="Register&lt;br&gt;Component" style="rounded=1;whiteSpace=wrap;html=1;movable=1;resizable=1;rotatable=1;deletable=1;editable=1;locked=0;connectable=1;" parent="mBs1r-Zp-DPNsg0r-bgw-35" vertex="1">
          <mxGeometry x="220" y="390" width="120" height="60" as="geometry" />
        </mxCell>
        <mxCell id="mBs1r-Zp-DPNsg0r-bgw-43" value="&lt;span style=&quot;white-space: pre;&quot;&gt;&#x9;&lt;/span&gt;&lt;span style=&quot;white-space: pre;&quot;&gt;&#x9;&lt;/span&gt;Database&amp;nbsp;Layer" style="rounded=0;whiteSpace=wrap;html=1;align=left;movable=1;resizable=1;rotatable=1;deletable=1;editable=1;locked=0;connectable=1;" parent="mBs1r-Zp-DPNsg0r-bgw-35" vertex="1">
          <mxGeometry x="40" y="520" width="760" height="120" as="geometry" />
        </mxCell>
        <mxCell id="mBs1r-Zp-DPNsg0r-bgw-86" style="edgeStyle=orthogonalEdgeStyle;rounded=0;orthogonalLoop=1;jettySize=auto;html=1;exitX=0;exitY=0.25;exitDx=0;exitDy=0;entryX=0.617;entryY=1.017;entryDx=0;entryDy=0;entryPerimeter=0;movable=1;resizable=1;rotatable=1;deletable=1;editable=1;locked=0;connectable=1;" parent="mBs1r-Zp-DPNsg0r-bgw-35" source="mBs1r-Zp-DPNsg0r-bgw-44" target="mBs1r-Zp-DPNsg0r-bgw-42" edge="1">
          <mxGeometry relative="1" as="geometry" />
        </mxCell>
        <mxCell id="mBs1r-Zp-DPNsg0r-bgw-87" style="edgeStyle=orthogonalEdgeStyle;rounded=0;orthogonalLoop=1;jettySize=auto;html=1;exitX=1;exitY=0.25;exitDx=0;exitDy=0;entryX=0.367;entryY=1.05;entryDx=0;entryDy=0;entryPerimeter=0;movable=1;resizable=1;rotatable=1;deletable=1;editable=1;locked=0;connectable=1;" parent="mBs1r-Zp-DPNsg0r-bgw-35" source="mBs1r-Zp-DPNsg0r-bgw-44" target="mBs1r-Zp-DPNsg0r-bgw-52" edge="1">
          <mxGeometry relative="1" as="geometry" />
        </mxCell>
        <mxCell id="mBs1r-Zp-DPNsg0r-bgw-88" style="edgeStyle=orthogonalEdgeStyle;rounded=0;orthogonalLoop=1;jettySize=auto;html=1;exitX=0.65;exitY=0.983;exitDx=0;exitDy=0;entryX=1;entryY=0.75;entryDx=0;entryDy=0;exitPerimeter=0;movable=1;resizable=1;rotatable=1;deletable=1;editable=1;locked=0;connectable=1;" parent="mBs1r-Zp-DPNsg0r-bgw-35" source="mBs1r-Zp-DPNsg0r-bgw-52" target="mBs1r-Zp-DPNsg0r-bgw-44" edge="1">
          <mxGeometry relative="1" as="geometry" />
        </mxCell>
        <mxCell id="mBs1r-Zp-DPNsg0r-bgw-44" value="PostgreSQL" style="rounded=1;whiteSpace=wrap;html=1;movable=1;resizable=1;rotatable=1;deletable=1;editable=1;locked=0;connectable=1;" parent="mBs1r-Zp-DPNsg0r-bgw-35" vertex="1">
          <mxGeometry x="370" y="550" width="250" height="60" as="geometry" />
        </mxCell>
        <mxCell id="mBs1r-Zp-DPNsg0r-bgw-64" style="edgeStyle=orthogonalEdgeStyle;rounded=0;orthogonalLoop=1;jettySize=auto;html=1;exitX=0.25;exitY=1;exitDx=0;exitDy=0;entryX=0.25;entryY=0;entryDx=0;entryDy=0;movable=1;resizable=1;rotatable=1;deletable=1;editable=1;locked=0;connectable=1;" parent="mBs1r-Zp-DPNsg0r-bgw-35" source="mBs1r-Zp-DPNsg0r-bgw-45" target="mBs1r-Zp-DPNsg0r-bgw-50" edge="1">
          <mxGeometry relative="1" as="geometry" />
        </mxCell>
        <mxCell id="mBs1r-Zp-DPNsg0r-bgw-45" value="Common Student &lt;br&gt;List Handler" style="rounded=1;whiteSpace=wrap;html=1;movable=1;resizable=1;rotatable=1;deletable=1;editable=1;locked=0;connectable=1;" parent="mBs1r-Zp-DPNsg0r-bgw-35" vertex="1">
          <mxGeometry x="360" y="230" width="120" height="60" as="geometry" />
        </mxCell>
        <mxCell id="mBs1r-Zp-DPNsg0r-bgw-66" style="edgeStyle=orthogonalEdgeStyle;rounded=0;orthogonalLoop=1;jettySize=auto;html=1;exitX=0.25;exitY=1;exitDx=0;exitDy=0;entryX=0.25;entryY=0;entryDx=0;entryDy=0;movable=1;resizable=1;rotatable=1;deletable=1;editable=1;locked=0;connectable=1;" parent="mBs1r-Zp-DPNsg0r-bgw-35" source="mBs1r-Zp-DPNsg0r-bgw-46" target="mBs1r-Zp-DPNsg0r-bgw-51" edge="1">
          <mxGeometry relative="1" as="geometry" />
        </mxCell>
        <mxCell id="mBs1r-Zp-DPNsg0r-bgw-46" value="Suspend&lt;br&gt;Handler" style="rounded=1;whiteSpace=wrap;html=1;movable=1;resizable=1;rotatable=1;deletable=1;editable=1;locked=0;connectable=1;" parent="mBs1r-Zp-DPNsg0r-bgw-35" vertex="1">
          <mxGeometry x="500" y="230" width="120" height="60" as="geometry" />
        </mxCell>
        <mxCell id="mBs1r-Zp-DPNsg0r-bgw-68" style="edgeStyle=orthogonalEdgeStyle;rounded=0;orthogonalLoop=1;jettySize=auto;html=1;exitX=0.25;exitY=1;exitDx=0;exitDy=0;entryX=0.25;entryY=0;entryDx=0;entryDy=0;movable=1;resizable=1;rotatable=1;deletable=1;editable=1;locked=0;connectable=1;" parent="mBs1r-Zp-DPNsg0r-bgw-35" source="mBs1r-Zp-DPNsg0r-bgw-47" target="mBs1r-Zp-DPNsg0r-bgw-52" edge="1">
          <mxGeometry relative="1" as="geometry" />
        </mxCell>
        <mxCell id="mBs1r-Zp-DPNsg0r-bgw-47" value="Notification List&lt;br&gt;Handler" style="rounded=1;whiteSpace=wrap;html=1;movable=1;resizable=1;rotatable=1;deletable=1;editable=1;locked=0;connectable=1;" parent="mBs1r-Zp-DPNsg0r-bgw-35" vertex="1">
          <mxGeometry x="640" y="230" width="120" height="60" as="geometry" />
        </mxCell>
        <mxCell id="mBs1r-Zp-DPNsg0r-bgw-65" style="edgeStyle=orthogonalEdgeStyle;rounded=0;orthogonalLoop=1;jettySize=auto;html=1;exitX=0.75;exitY=0;exitDx=0;exitDy=0;entryX=0.75;entryY=1;entryDx=0;entryDy=0;movable=1;resizable=1;rotatable=1;deletable=1;editable=1;locked=0;connectable=1;" parent="mBs1r-Zp-DPNsg0r-bgw-35" source="mBs1r-Zp-DPNsg0r-bgw-50" target="mBs1r-Zp-DPNsg0r-bgw-45" edge="1">
          <mxGeometry relative="1" as="geometry" />
        </mxCell>
        <mxCell id="mBs1r-Zp-DPNsg0r-bgw-76" style="edgeStyle=orthogonalEdgeStyle;rounded=0;orthogonalLoop=1;jettySize=auto;html=1;exitX=0.4;exitY=1;exitDx=0;exitDy=0;entryX=0.152;entryY=0.017;entryDx=0;entryDy=0;entryPerimeter=0;exitPerimeter=0;movable=1;resizable=1;rotatable=1;deletable=1;editable=1;locked=0;connectable=1;" parent="mBs1r-Zp-DPNsg0r-bgw-35" source="mBs1r-Zp-DPNsg0r-bgw-50" target="mBs1r-Zp-DPNsg0r-bgw-44" edge="1">
          <mxGeometry relative="1" as="geometry" />
        </mxCell>
        <mxCell id="mBs1r-Zp-DPNsg0r-bgw-50" value="Common Student Component" style="rounded=1;whiteSpace=wrap;html=1;movable=1;resizable=1;rotatable=1;deletable=1;editable=1;locked=0;connectable=1;" parent="mBs1r-Zp-DPNsg0r-bgw-35" vertex="1">
          <mxGeometry x="360" y="390" width="120" height="60" as="geometry" />
        </mxCell>
        <mxCell id="mBs1r-Zp-DPNsg0r-bgw-67" style="edgeStyle=orthogonalEdgeStyle;rounded=0;orthogonalLoop=1;jettySize=auto;html=1;exitX=0.75;exitY=0;exitDx=0;exitDy=0;entryX=0.75;entryY=1;entryDx=0;entryDy=0;movable=1;resizable=1;rotatable=1;deletable=1;editable=1;locked=0;connectable=1;" parent="mBs1r-Zp-DPNsg0r-bgw-35" source="mBs1r-Zp-DPNsg0r-bgw-51" target="mBs1r-Zp-DPNsg0r-bgw-46" edge="1">
          <mxGeometry relative="1" as="geometry" />
        </mxCell>
        <mxCell id="mBs1r-Zp-DPNsg0r-bgw-51" value="Suspend&lt;br&gt;Component" style="rounded=1;whiteSpace=wrap;html=1;movable=1;resizable=1;rotatable=1;deletable=1;editable=1;locked=0;connectable=1;" parent="mBs1r-Zp-DPNsg0r-bgw-35" vertex="1">
          <mxGeometry x="500" y="390" width="120" height="60" as="geometry" />
        </mxCell>
        <mxCell id="mBs1r-Zp-DPNsg0r-bgw-69" style="edgeStyle=orthogonalEdgeStyle;rounded=0;orthogonalLoop=1;jettySize=auto;html=1;exitX=0.75;exitY=0;exitDx=0;exitDy=0;entryX=0.75;entryY=1;entryDx=0;entryDy=0;movable=1;resizable=1;rotatable=1;deletable=1;editable=1;locked=0;connectable=1;" parent="mBs1r-Zp-DPNsg0r-bgw-35" source="mBs1r-Zp-DPNsg0r-bgw-52" target="mBs1r-Zp-DPNsg0r-bgw-47" edge="1">
          <mxGeometry relative="1" as="geometry" />
        </mxCell>
        <mxCell id="mBs1r-Zp-DPNsg0r-bgw-52" value="Notification List&lt;br&gt;Component" style="rounded=1;whiteSpace=wrap;html=1;movable=1;resizable=1;rotatable=1;deletable=1;editable=1;locked=0;connectable=1;" parent="mBs1r-Zp-DPNsg0r-bgw-35" vertex="1">
          <mxGeometry x="640" y="390" width="120" height="60" as="geometry" />
        </mxCell>
        <mxCell id="mBs1r-Zp-DPNsg0r-bgw-59" style="edgeStyle=orthogonalEdgeStyle;rounded=0;orthogonalLoop=1;jettySize=auto;html=1;exitX=1;exitY=0.5;exitDx=0;exitDy=0;entryX=0.5;entryY=0;entryDx=0;entryDy=0;movable=1;resizable=1;rotatable=1;deletable=1;editable=1;locked=0;connectable=1;" parent="mBs1r-Zp-DPNsg0r-bgw-35" source="mBs1r-Zp-DPNsg0r-bgw-38" target="mBs1r-Zp-DPNsg0r-bgw-47" edge="1">
          <mxGeometry relative="1" as="geometry">
            <Array as="points">
              <mxPoint x="700" y="100" />
            </Array>
          </mxGeometry>
        </mxCell>
        <mxCell id="mBs1r-Zp-DPNsg0r-bgw-58" style="edgeStyle=orthogonalEdgeStyle;rounded=0;orthogonalLoop=1;jettySize=auto;html=1;movable=1;resizable=1;rotatable=1;deletable=1;editable=1;locked=0;connectable=1;" parent="mBs1r-Zp-DPNsg0r-bgw-35" target="mBs1r-Zp-DPNsg0r-bgw-40" edge="1">
          <mxGeometry relative="1" as="geometry">
            <mxPoint x="430" y="100" as="sourcePoint" />
            <Array as="points">
              <mxPoint x="430" y="100" />
              <mxPoint x="280" y="100" />
            </Array>
          </mxGeometry>
        </mxCell>
        <mxCell id="mBs1r-Zp-DPNsg0r-bgw-60" style="edgeStyle=orthogonalEdgeStyle;rounded=0;orthogonalLoop=1;jettySize=auto;html=1;exitX=0.25;exitY=1;exitDx=0;exitDy=0;entryX=0.5;entryY=0;entryDx=0;entryDy=0;movable=1;resizable=1;rotatable=1;deletable=1;editable=1;locked=0;connectable=1;" parent="mBs1r-Zp-DPNsg0r-bgw-35" source="mBs1r-Zp-DPNsg0r-bgw-38" target="mBs1r-Zp-DPNsg0r-bgw-45" edge="1">
          <mxGeometry relative="1" as="geometry" />
        </mxCell>
        <mxCell id="mBs1r-Zp-DPNsg0r-bgw-61" style="edgeStyle=orthogonalEdgeStyle;rounded=0;orthogonalLoop=1;jettySize=auto;html=1;exitX=0.75;exitY=1;exitDx=0;exitDy=0;movable=1;resizable=1;rotatable=1;deletable=1;editable=1;locked=0;connectable=1;" parent="mBs1r-Zp-DPNsg0r-bgw-35" source="mBs1r-Zp-DPNsg0r-bgw-38" target="mBs1r-Zp-DPNsg0r-bgw-46" edge="1">
          <mxGeometry relative="1" as="geometry" />
        </mxCell>
        <mxCell id="mBs1r-Zp-DPNsg0r-bgw-62" style="edgeStyle=orthogonalEdgeStyle;rounded=0;orthogonalLoop=1;jettySize=auto;html=1;exitX=0.25;exitY=1;exitDx=0;exitDy=0;entryX=0.25;entryY=0;entryDx=0;entryDy=0;movable=1;resizable=1;rotatable=1;deletable=1;editable=1;locked=0;connectable=1;" parent="mBs1r-Zp-DPNsg0r-bgw-35" source="mBs1r-Zp-DPNsg0r-bgw-40" target="mBs1r-Zp-DPNsg0r-bgw-42" edge="1">
          <mxGeometry relative="1" as="geometry" />
        </mxCell>
        <mxCell id="mBs1r-Zp-DPNsg0r-bgw-70" style="edgeStyle=orthogonalEdgeStyle;rounded=0;orthogonalLoop=1;jettySize=auto;html=1;exitX=0.433;exitY=1;exitDx=0;exitDy=0;entryX=0;entryY=0.75;entryDx=0;entryDy=0;exitPerimeter=0;movable=1;resizable=1;rotatable=1;deletable=1;editable=1;locked=0;connectable=1;" parent="mBs1r-Zp-DPNsg0r-bgw-35" source="mBs1r-Zp-DPNsg0r-bgw-42" target="mBs1r-Zp-DPNsg0r-bgw-44" edge="1">
          <mxGeometry relative="1" as="geometry" />
        </mxCell>
        <mxCell id="mBs1r-Zp-DPNsg0r-bgw-80" style="edgeStyle=orthogonalEdgeStyle;rounded=0;orthogonalLoop=1;jettySize=auto;html=1;exitX=0.4;exitY=1;exitDx=0;exitDy=0;entryX=0.152;entryY=0.017;entryDx=0;entryDy=0;entryPerimeter=0;exitPerimeter=0;movable=1;resizable=1;rotatable=1;deletable=1;editable=1;locked=0;connectable=1;" parent="mBs1r-Zp-DPNsg0r-bgw-35" edge="1">
          <mxGeometry relative="1" as="geometry">
            <mxPoint x="547.5" y="449" as="sourcePoint" />
            <mxPoint x="547.5" y="550" as="targetPoint" />
          </mxGeometry>
        </mxCell>
        <mxCell id="mBs1r-Zp-DPNsg0r-bgw-81" style="edgeStyle=orthogonalEdgeStyle;rounded=0;orthogonalLoop=1;jettySize=auto;html=1;exitX=0.4;exitY=1;exitDx=0;exitDy=0;entryX=0.152;entryY=0.017;entryDx=0;entryDy=0;entryPerimeter=0;exitPerimeter=0;movable=1;resizable=1;rotatable=1;deletable=1;editable=1;locked=0;connectable=1;" parent="mBs1r-Zp-DPNsg0r-bgw-35" edge="1">
          <mxGeometry relative="1" as="geometry">
            <mxPoint x="580" y="550" as="sourcePoint" />
            <mxPoint x="580" y="449" as="targetPoint" />
          </mxGeometry>
        </mxCell>
        <mxCell id="mBs1r-Zp-DPNsg0r-bgw-82" style="edgeStyle=orthogonalEdgeStyle;rounded=0;orthogonalLoop=1;jettySize=auto;html=1;exitX=0.4;exitY=1;exitDx=0;exitDy=0;entryX=0.152;entryY=0.017;entryDx=0;entryDy=0;entryPerimeter=0;exitPerimeter=0;movable=1;resizable=1;rotatable=1;deletable=1;editable=1;locked=0;connectable=1;" parent="mBs1r-Zp-DPNsg0r-bgw-35" edge="1">
          <mxGeometry relative="1" as="geometry">
            <mxPoint x="440" y="551" as="sourcePoint" />
            <mxPoint x="440" y="450" as="targetPoint" />
          </mxGeometry>
        </mxCell>
        <mxCell id="mBs1r-Zp-DPNsg0r-bgw-96" style="edgeStyle=orthogonalEdgeStyle;rounded=0;orthogonalLoop=1;jettySize=auto;html=1;exitX=1;exitY=0.5;exitDx=0;exitDy=0;movable=1;resizable=1;rotatable=1;deletable=1;editable=1;locked=0;connectable=1;" parent="mBs1r-Zp-DPNsg0r-bgw-35" edge="1">
          <mxGeometry relative="1" as="geometry">
            <mxPoint x="800" y="400" as="sourcePoint" />
            <mxPoint x="840" y="400" as="targetPoint" />
            <Array as="points">
              <mxPoint x="820" y="400" />
              <mxPoint x="820" y="400" />
            </Array>
          </mxGeometry>
        </mxCell>
        <mxCell id="mBs1r-Zp-DPNsg0r-bgw-55" value="&lt;div style=&quot;text-align: justify;&quot;&gt;&lt;span style=&quot;background-color: initial;&quot;&gt;&lt;br&gt;&lt;/span&gt;&lt;/div&gt;&lt;div style=&quot;text-align: justify;&quot;&gt;&lt;span style=&quot;background-color: initial;&quot;&gt;&lt;br&gt;&lt;/span&gt;&lt;/div&gt;&lt;div style=&quot;text-align: justify;&quot;&gt;&lt;span style=&quot;background-color: initial;&quot;&gt;&lt;br&gt;&lt;/span&gt;&lt;/div&gt;&lt;div style=&quot;text-align: justify;&quot;&gt;&lt;span style=&quot;background-color: initial;&quot;&gt;Utility Layer&lt;/span&gt;&lt;/div&gt;" style="rounded=0;whiteSpace=wrap;html=1;verticalAlign=top;movable=1;resizable=1;rotatable=1;deletable=1;editable=1;locked=0;connectable=1;" parent="mBs1r-Zp-DPNsg0r-bgw-35" vertex="1">
          <mxGeometry x="1040" y="40" width="160" height="600" as="geometry" />
        </mxCell>
        <mxCell id="mBs1r-Zp-DPNsg0r-bgw-56" value="Logger" style="rounded=1;whiteSpace=wrap;html=1;movable=1;resizable=1;rotatable=1;deletable=1;editable=1;locked=0;connectable=1;" parent="mBs1r-Zp-DPNsg0r-bgw-35" vertex="1">
          <mxGeometry x="1060" y="310" width="120" height="60" as="geometry" />
        </mxCell>
        <mxCell id="cvzrJ966iYsTcbRhRwWu-1" value="&lt;div style=&quot;text-align: justify;&quot;&gt;&lt;span style=&quot;background-color: initial;&quot;&gt;&lt;br&gt;&lt;/span&gt;&lt;/div&gt;&lt;div style=&quot;text-align: justify;&quot;&gt;&lt;span style=&quot;background-color: initial;&quot;&gt;&lt;br&gt;&lt;/span&gt;&lt;/div&gt;&lt;div style=&quot;text-align: justify;&quot;&gt;&lt;span style=&quot;background-color: initial;&quot;&gt;Domain Layer&lt;/span&gt;&lt;br&gt;&lt;/div&gt;" style="rounded=0;whiteSpace=wrap;html=1;verticalAlign=top;movable=1;resizable=1;rotatable=1;deletable=1;editable=1;locked=0;connectable=1;" vertex="1" parent="mBs1r-Zp-DPNsg0r-bgw-35">
          <mxGeometry x="840" y="250" width="160" height="180" as="geometry" />
        </mxCell>
        <mxCell id="cvzrJ966iYsTcbRhRwWu-3" style="edgeStyle=orthogonalEdgeStyle;rounded=0;orthogonalLoop=1;jettySize=auto;html=1;exitX=0.5;exitY=1;exitDx=0;exitDy=0;" edge="1" parent="mBs1r-Zp-DPNsg0r-bgw-35" source="cvzrJ966iYsTcbRhRwWu-1" target="cvzrJ966iYsTcbRhRwWu-1">
          <mxGeometry relative="1" as="geometry" />
        </mxCell>
        <mxCell id="cvzrJ966iYsTcbRhRwWu-2" value="Models" style="rounded=1;whiteSpace=wrap;html=1;movable=1;resizable=1;rotatable=1;deletable=1;editable=1;locked=0;connectable=1;" vertex="1" parent="mBs1r-Zp-DPNsg0r-bgw-35">
          <mxGeometry x="860" y="330" width="120" height="60" as="geometry" />
        </mxCell>
        <mxCell id="mBs1r-Zp-DPNsg0r-bgw-90" style="edgeStyle=orthogonalEdgeStyle;rounded=0;orthogonalLoop=1;jettySize=auto;html=1;exitX=1;exitY=0.5;exitDx=0;exitDy=0;movable=1;resizable=1;rotatable=1;deletable=1;editable=1;locked=0;connectable=1;" parent="mBs1r-Zp-DPNsg0r-bgw-35" edge="1">
          <mxGeometry relative="1" as="geometry">
            <mxPoint x="840" y="280" as="targetPoint" />
            <mxPoint x="800" y="280" as="sourcePoint" />
            <Array as="points">
              <mxPoint x="820" y="280" />
              <mxPoint x="820" y="280" />
            </Array>
          </mxGeometry>
        </mxCell>
        <mxCell id="cvzrJ966iYsTcbRhRwWu-7" style="edgeStyle=orthogonalEdgeStyle;rounded=0;orthogonalLoop=1;jettySize=auto;html=1;exitX=1;exitY=0.25;exitDx=0;exitDy=0;" edge="1" parent="mBs1r-Zp-DPNsg0r-bgw-35">
          <mxGeometry relative="1" as="geometry">
            <mxPoint x="800" y="220" as="sourcePoint" />
            <mxPoint x="1040" y="220" as="targetPoint" />
            <Array as="points">
              <mxPoint x="980" y="220" />
              <mxPoint x="980" y="220" />
            </Array>
          </mxGeometry>
        </mxCell>
        <mxCell id="cvzrJ966iYsTcbRhRwWu-8" style="edgeStyle=orthogonalEdgeStyle;rounded=0;orthogonalLoop=1;jettySize=auto;html=1;exitX=1;exitY=0.25;exitDx=0;exitDy=0;" edge="1" parent="mBs1r-Zp-DPNsg0r-bgw-35">
          <mxGeometry relative="1" as="geometry">
            <mxPoint x="800" y="460" as="sourcePoint" />
            <mxPoint x="1040" y="460" as="targetPoint" />
            <Array as="points">
              <mxPoint x="980" y="460" />
              <mxPoint x="980" y="460" />
            </Array>
          </mxGeometry>
        </mxCell>
        <mxCell id="cvzrJ966iYsTcbRhRwWu-9" style="edgeStyle=orthogonalEdgeStyle;rounded=0;orthogonalLoop=1;jettySize=auto;html=1;exitX=1;exitY=0.5;exitDx=0;exitDy=0;entryX=0.007;entryY=0.101;entryDx=0;entryDy=0;entryPerimeter=0;" edge="1" parent="mBs1r-Zp-DPNsg0r-bgw-35" source="mBs1r-Zp-DPNsg0r-bgw-37" target="mBs1r-Zp-DPNsg0r-bgw-55">
          <mxGeometry relative="1" as="geometry" />
        </mxCell>
      </root>
    </mxGraphModel>
  </diagram>
</mxfile>
